<?xml version="1.0" encoding="utf-8"?>
<!-- Generator: Adobe Illustrator 24.0.3, SVG Export Plug-In . SVG Version: 6.00 Build 0)  -->
<svg version="1.1" id="Logo" xmlns="http://www.w3.org/2000/svg" xmlns:xlink="http://www.w3.org/1999/xlink" x="0px" y="0px"
	 viewBox="0 0 1920 539" style="enable-background:new 0 0 1920 539;" xml:space="preserve">
<style type="text/css">
	.st0{fill:#5BB65A;}
	.st1{fill:#565A5D;}
</style>
<g id="Full_x5F_logo">
	<g id="Diamonds">
		
			<rect x="87" y="70.3" transform="matrix(0.7071 0.7071 -0.7071 0.7071 105.0859 -53.3293)" class="st0" width="59.8" height="59.8"/>
		
			<rect x="86.8" y="179.4" transform="matrix(0.7071 0.7071 -0.7071 0.7071 182.2064 -21.2458)" class="st1" width="59.8" height="59.8"/>
		
			<rect x="86.7" y="288.5" transform="matrix(0.7071 0.7071 -0.7071 0.7071 259.3269 10.8376)" class="st0" width="59.8" height="59.8"/>
		
			<rect x="196.1" y="70" transform="matrix(0.7071 0.7071 -0.7071 0.7071 136.8235 -130.5472)" class="st1" width="59.8" height="59.8"/>
		
			<rect x="141.4" y="124.6" transform="matrix(0.7071 0.7071 -0.7071 0.7071 159.4607 -75.896)" class="st0" width="59.8" height="59.8"/>
		
			<rect x="195.9" y="179.1" transform="matrix(0.7071 0.7071 -0.7071 0.7071 213.944 -98.4637)" class="st0" width="59.8" height="59.8"/>
		
			<rect x="141.3" y="233.8" transform="matrix(0.7071 0.7071 -0.7071 0.7071 236.5812 -43.8126)" class="st0" width="59.8" height="59.8"/>
		
			<rect x="195.7" y="288.2" transform="matrix(0.7071 0.7071 -0.7071 0.7071 291.0645 -66.3803)" class="st1" width="59.8" height="59.8"/>
	</g>
	<g>
		<path class="st1" d="M82.5,422.4c0-5.4,2.1-9.9,6.4-13.7c4.3-3.8,10.9-5.7,19.9-5.7c6.5,0,12.8,1.4,19.1,4.1v7.7
			c-5.7-2.9-11.7-4.4-18.3-4.4c-6.1,0-10.7,1-14,3.1c-3.2,2-4.8,5-4.8,8.8c0,2.4,1,4.4,3.1,6c2.1,1.6,4.7,2.8,7.8,3.5
			s6.5,1.7,10.1,2.9c3.7,1.2,7,2.5,10.1,3.9c3.1,1.4,5.7,3.5,7.8,6.5c2.1,2.9,3.2,6.5,3.2,10.6c0,5.8-2.4,10.3-7.1,13.6
			c-4.8,3.3-11.4,4.9-19.9,4.9c-8.3,0-15.8-1.6-22.6-4.9v-8.1c6,3.7,13.3,5.6,21.9,5.6c12.9,0,19.4-3.7,19.4-11c0-3.1-1-5.7-3.1-7.9
			c-2.1-2.1-4.7-3.7-7.8-4.7l-10.1-3.1c-3.6-1.1-7-2.2-10.1-3.3c-3.1-1.1-5.7-2.9-7.8-5.4C83.5,429.1,82.5,426,82.5,422.4z"/>
		<path class="st1" d="M139,428.3v-6.9h9.9v-14.7h8.3v14.7h14.7v6.9h-14.7v31.7c0,2.6,0.6,4.5,1.8,5.6c1.2,1.1,3.3,1.6,6.4,1.6
			c2.3,0,4.5-0.4,6.5-1.2v7.1c-2.4,0.8-4.8,1.2-7.2,1.2c-0.1,0-0.2,0-0.3,0c-1.5,0-3-0.2-4.5-0.5c-1.4-0.3-3.1-0.9-4.9-1.8
			c-1.8-0.9-3.3-2.4-4.4-4.5c-1.1-2.1-1.7-4.7-1.7-7.9v-31.3H139z"/>
		<path class="st1" d="M181.8,457.5c0-2.3,0.5-4.4,1.4-6.3c0.9-1.9,2.1-3.4,3.5-4.5c1.4-1.2,3.1-2.1,5.2-3c2.1-0.8,4-1.4,5.6-1.8
			c1.6-0.4,3.6-0.7,5.8-0.9c2.2-0.2,3.8-0.3,4.8-0.4c0.9,0,2.1-0.1,3.4-0.1l9.1,0.5c0-4.7-1.4-8.1-4.2-10.1c-2.8-2-6.9-3-12.4-3
			c-6.2,0-11.7,0.8-16.7,2.5v-7.3c5.6-1.8,11.3-2.7,17.1-2.7c8,0,14.1,1.8,18.3,5.5c4.2,3.7,6.3,9.1,6.3,16.2v15.6
			c0,3.3-0.8,6.2-2.5,8.5c-1.7,2.4-3.9,4.1-6.5,5.1c-2.7,1.1-5.1,1.8-7.5,2.2c-2.3,0.4-4.6,0.6-6.9,0.6c-1.8,0-3.5-0.1-5.4-0.3
			c-1.8-0.2-3.9-0.7-6.3-1.4c-2.3-0.7-4.3-1.7-6.1-2.8c-1.7-1.1-3.2-2.8-4.4-4.9C182.4,462.8,181.8,460.3,181.8,457.5z M190.1,457.5
			c0,6.5,5.2,9.7,15.5,9.7c0,0,0.1,0,0.2,0c10.1,0,15.1-3.1,15.1-9.4v-10c-2.5-0.4-5.9-0.6-10.1-0.6
			C196.9,447.2,190.1,450.7,190.1,457.5z"/>
		<path class="st1" d="M244.2,473.5v-47.9c8.6-3.3,17.8-4.9,27.7-4.9v7.1c-6.2,0.1-12.7,1-19.4,2.7v43.1H244.2z"/>
		<path class="st1" d="M280.6,428.3v-6.9h9.9v-14.7h8.3v14.7h14.7v6.9h-14.7v31.7c0,2.6,0.6,4.5,1.8,5.6c1.2,1.1,3.3,1.6,6.4,1.6
			c2.3,0,4.5-0.4,6.5-1.2v7.1c-2.4,0.8-4.8,1.2-7.2,1.2c-0.1,0-0.2,0-0.3,0c-1.5,0-3-0.2-4.5-0.5c-1.4-0.3-3.1-0.9-4.9-1.8
			c-1.8-0.9-3.3-2.4-4.4-4.5c-1.1-2.1-1.7-4.7-1.7-7.9v-31.3H280.6z"/>
		<path class="st1" d="M326,451.6v-30.1h8.3v30.5c0,5.3,1.3,9.2,3.8,11.6c2.5,2.5,6.5,3.7,11.9,3.7c5.3,0,9.2-1.2,11.8-3.7
			c2.6-2.5,3.8-6.3,3.8-11.6v-30.5h8.3v30.1c0,7.2-2.1,12.8-6.2,16.8c-4.2,4-10,5.9-17.7,5.9c-7.6,0-13.5-2-17.7-5.9
			C328,464.4,326,458.8,326,451.6z"/>
		<path class="st1" d="M389.1,492.8V437c0-1.4,0.2-2.8,0.7-4.3c0.5-1.5,1.4-3.2,2.8-5.3c1.4-2.1,3.8-3.7,7.3-5s7.7-1.9,12.7-1.9
			c2.1,0,4.2,0.2,6.2,0.5s4.2,1.1,6.6,2.3c2.4,1.2,4.4,2.7,6.1,4.7c1.7,1.9,3.2,4.6,4.3,8.1c1.2,3.4,1.8,7.4,1.8,12
			c0,5.2-0.8,9.6-2.3,13.2c-1.5,3.6-3.6,6.3-6.3,8.1c-2.7,1.8-5.4,3.1-8.2,3.8c-2.8,0.7-5.9,1.1-9.2,1.1c-4.6,0-9.4-0.7-14.1-2v20.5
			H389.1z M397.3,464.6c4.3,1.7,9.1,2.6,14.1,2.6c6.2,0,10.8-1.5,13.6-4.5c2.8-3,4.2-7.9,4.2-14.7c0-4.4-0.5-8-1.5-10.9
			c-1-2.9-2.5-5-4.3-6.3c-1.8-1.3-3.6-2.2-5.3-2.6c-1.7-0.4-3.6-0.7-5.7-0.7c-10.1,0-15.2,3.1-15.2,9.2V464.6z"/>
		<path class="st1" d="M492.9,473.5v-69.6h8.9l26.2,35.3l26.3-35.3h8.9v69.6h-8.3v-57.2l-26.9,35.4l-26.8-35.4v57.2H492.9z"/>
		<path class="st1" d="M581.7,412.3v-8.4h9.1v8.4H581.7z M582.2,473.5h8.3v-52h-8.3V473.5z"/>
		<path class="st1" d="M608.5,473.5v-47.9c7.5-3.4,15.5-5.1,24.1-5.1c7.2,0,12.7,1.7,16.7,5c4,3.3,5.9,8,5.9,14.1v33.9H647v-33.9
			c0-1.5-0.2-2.8-0.5-3.9c-0.3-1.1-1-2.3-1.9-3.6c-1-1.3-2.5-2.3-4.7-3s-4.9-1-8.1-1c-4.8,0-9.8,0.7-15,2.1v43.4H608.5z"/>
		<path class="st1" d="M669.5,446.8c0-5.2,0.8-9.5,2.3-13.2c1.5-3.6,3.6-6.3,6.3-8.1s5.4-3.1,8.2-3.8c2.8-0.7,5.9-1.1,9.2-1.1
			c5,0,9.7,0.7,14.1,2v-21h8.3V458c0,1.4-0.2,2.8-0.7,4.3c-0.4,1.5-1.4,3.2-2.8,5.2c-1.4,2-3.8,3.7-7.3,4.9
			c-3.4,1.3-7.6,1.9-12.7,1.9c-2.1,0-4.2-0.2-6.2-0.5c-2-0.3-4.2-1.1-6.6-2.3c-2.4-1.2-4.4-2.7-6.1-4.6c-1.7-1.9-3.2-4.6-4.4-8
			C670.1,455.4,669.5,451.4,669.5,446.8z M677.8,446.8c0,4.4,0.5,8,1.6,11c1,3,2.5,5.1,4.3,6.4s3.6,2.2,5.2,2.6
			c1.7,0.4,3.6,0.7,5.7,0.7c10.1,0,15.1-3.1,15.1-9.2v-28.2c-4.6-1.7-9.4-2.6-14.1-2.6c-6.2,0-10.8,1.5-13.6,4.6
			C679.2,435.2,677.8,440.1,677.8,446.8z"/>
		<path class="st1" d="M730.5,435.6c0-4.2,1.7-7.7,5-10.6c3.3-2.9,8.4-4.4,15.3-4.4c4.9,0,9.7,1.1,14.6,3.2v7.5
			c-4.3-2.4-8.9-3.6-13.7-3.6c-8.6,0-12.9,2.7-12.9,8c0,1.8,1,3.3,3.1,4.4c2.1,1.1,4.6,2,7.6,2.8c3,0.7,6,1.6,9,2.6
			c3,1,5.6,2.7,7.7,5.2c2.1,2.4,3.2,5.5,3.2,9.3c0,4.5-1.8,8.1-5.5,10.6c-3.7,2.6-8.8,3.8-15.4,3.8c-6.3,0-12.1-1.3-17.2-3.9v-8
			c5.5,3.1,11.1,4.6,16.9,4.6c8.7,0,13-2.4,13-7.2c0-2.6-1-4.6-3.1-6.1c-2.1-1.5-4.6-2.6-7.6-3.3c-3-0.7-6-1.5-9-2.4
			c-3-0.9-5.6-2.3-7.7-4.4C731.6,441.6,730.5,438.9,730.5,435.6z"/>
		<path class="st1" d="M782.1,485.2l8.4-20.4h9.4l-9.6,20.4H782.1z"/>
		<path class="st1" d="M857.9,473.5v-69.6h8.3v69.6H857.9z"/>
		<path class="st1" d="M883.5,473.5v-47.9c7.5-3.4,15.5-5.1,24.1-5.1c7.2,0,12.7,1.7,16.7,5c4,3.3,5.9,8,5.9,14.1v33.9H922v-33.9
			c0-1.5-0.2-2.8-0.5-3.9c-0.3-1.1-1-2.3-1.9-3.6c-1-1.3-2.5-2.3-4.7-3c-2.2-0.7-4.9-1-8.1-1c-4.8,0-9.8,0.7-15,2.1v43.4H883.5z"/>
		<path class="st1" d="M946.8,473.5v-47.9c7.5-3.4,15.5-5.1,24.1-5.1c7.2,0,12.7,1.7,16.7,5c4,3.3,5.9,8,5.9,14.1v33.9h-8.3v-33.9
			c0-1.5-0.2-2.8-0.5-3.9c-0.3-1.1-1-2.3-1.9-3.6c-1-1.3-2.5-2.3-4.7-3c-2.2-0.7-4.9-1-8.1-1c-4.8,0-9.8,0.7-15,2.1v43.4H946.8z"/>
		<path class="st1" d="M1009.6,460.9c-1.6-3.7-2.4-8.2-2.4-13.5s0.8-9.8,2.4-13.5c1.6-3.7,3.8-6.5,6.5-8.3c2.8-1.8,5.5-3.1,8.4-3.9
			c2.8-0.8,6-1.1,9.4-1.1c3.4,0,6.6,0.4,9.5,1.1c2.9,0.8,5.7,2.1,8.4,3.9c2.8,1.8,4.9,4.6,6.5,8.3c1.6,3.7,2.4,8.2,2.4,13.5
			s-0.8,9.8-2.4,13.5c-1.6,3.7-3.8,6.5-6.5,8.3c-2.8,1.8-5.6,3.1-8.4,3.9c-2.9,0.8-6,1.1-9.5,1.1c-3.4,0-6.6-0.4-9.4-1.1
			c-2.8-0.8-5.6-2.1-8.4-3.9C1013.4,467.4,1011.2,464.7,1009.6,460.9z M1019.9,432.2c-2.9,3.2-4.4,8.3-4.4,15.2c0,7,1.5,12,4.4,15.2
			c2.9,3.2,7.6,4.8,14.1,4.8c6.5,0,11.2-1.6,14.1-4.7c3-3.2,4.4-8.2,4.4-15.3s-1.5-12.1-4.4-15.3c-3-3.2-7.7-4.7-14.1-4.7
			C1027.5,427.4,1022.8,429,1019.9,432.2z"/>
		<path class="st1" d="M1068.1,421.5h8.8l17.2,42.7l17.3-42.7h8.8l-21.9,52h-8.3L1068.1,421.5z"/>
		<path class="st1" d="M1126.8,457.5c0-2.3,0.5-4.4,1.4-6.3c0.9-1.9,2.1-3.4,3.5-4.5c1.4-1.2,3.1-2.1,5.2-3c2.1-0.8,4-1.4,5.6-1.8
			s3.6-0.7,5.8-0.9c2.2-0.2,3.8-0.3,4.8-0.4c0.9,0,2.1-0.1,3.4-0.1l9.1,0.5c0-4.7-1.4-8.1-4.2-10.1s-6.9-3-12.4-3
			c-6.2,0-11.7,0.8-16.7,2.5v-7.3c5.6-1.8,11.3-2.7,17.1-2.7c8,0,14.1,1.8,18.3,5.5c4.2,3.7,6.3,9.1,6.3,16.2v15.6
			c0,3.3-0.8,6.2-2.5,8.5s-3.9,4.1-6.5,5.1c-2.7,1.1-5.1,1.8-7.5,2.2c-2.3,0.4-4.6,0.6-6.9,0.6c-1.7,0-3.5-0.1-5.4-0.3
			c-1.8-0.2-3.9-0.7-6.3-1.4c-2.3-0.7-4.3-1.7-6.1-2.8c-1.7-1.1-3.2-2.8-4.4-4.9C1127.4,462.8,1126.8,460.3,1126.8,457.5z
			 M1135,457.5c0,6.5,5.2,9.7,15.5,9.7c0,0,0.1,0,0.2,0c10.1,0,15.1-3.1,15.1-9.4v-10c-2.5-0.4-5.9-0.6-10.1-0.6
			C1141.9,447.2,1135,450.7,1135,457.5z"/>
		<path class="st1" d="M1182.8,428.3v-6.9h9.9v-14.7h8.3v14.7h14.7v6.9h-14.7v31.7c0,2.6,0.6,4.5,1.8,5.6c1.2,1.1,3.3,1.6,6.4,1.6
			c2.3,0,4.5-0.4,6.5-1.2v7.1c-2.4,0.8-4.8,1.2-7.2,1.2c-0.1,0-0.2,0-0.3,0c-1.5,0-3-0.2-4.5-0.5s-3.1-0.9-4.9-1.8
			c-1.8-0.9-3.3-2.4-4.4-4.5c-1.1-2.1-1.7-4.7-1.7-7.9v-31.3H1182.8z"/>
		<path class="st1" d="M1228.6,412.3v-8.4h9.1v8.4H1228.6z M1229.1,473.5h8.3v-52h-8.3V473.5z"/>
		<path class="st1" d="M1250,421.5h8.8l17.2,42.7l17.3-42.7h8.8l-21.9,52h-8.3L1250,421.5z"/>
		<path class="st1" d="M1309.8,448.1c0-0.1,0-0.2,0-0.4s0-0.3,0-0.4c0-17.9,8.3-26.8,25-26.8c3.5,0,6.6,0.5,9.5,1.5
			c2.8,1,5.1,2.2,6.7,3.5s3.1,3.1,4.4,5.3c1.3,2.2,2.2,4,2.7,5.6c0.5,1.5,1,3.4,1.2,5.5c0.3,2.1,0.4,3.4,0.4,4v2.2l-0.2,3.7h-41.4
			c0.5,5.2,2.3,9,5.2,11.4c3,2.4,7.4,3.5,13.2,3.5c8.3,0,14.8-1.3,19.5-3.9v7.7c-5.5,2.4-12.1,3.6-20,3.6c-0.1,0-0.2,0-0.3,0
			c-3.3,0-6.4-0.4-9.2-1.1c-2.8-0.7-5.5-2-8.2-3.8c-2.7-1.8-4.8-4.5-6.3-8.1C1310.6,457.7,1309.8,453.3,1309.8,448.1z M1318.1,445.2
			h33.4c0-1.2-0.2-2.5-0.5-4c-0.3-1.5-1-3.3-1.9-5.6c-1-2.3-2.7-4.2-5.1-5.7c-2.5-1.5-5.5-2.3-9.2-2.3c-5.7,0-9.8,1.3-12.3,4
			C1319.9,434.3,1318.5,438.9,1318.1,445.2z"/>
		<path class="st1" d="M1411.6,422.4c0-5.4,2.1-9.9,6.4-13.7c4.3-3.8,10.9-5.7,19.9-5.7c6.5,0,12.8,1.4,19.1,4.1v7.7
			c-5.7-2.9-11.7-4.4-18.3-4.4c-6.1,0-10.7,1-14,3.1c-3.2,2-4.8,5-4.8,8.8c0,2.4,1,4.4,3.1,6s4.7,2.8,7.8,3.5s6.5,1.7,10.1,2.9
			c3.7,1.2,7,2.5,10.1,3.9c3.1,1.4,5.7,3.5,7.8,6.5c2.1,2.9,3.2,6.5,3.2,10.6c0,5.8-2.4,10.3-7.1,13.6c-4.8,3.3-11.4,4.9-19.9,4.9
			c-8.3,0-15.8-1.6-22.6-4.9v-8.1c6,3.7,13.3,5.6,21.9,5.6c12.9,0,19.4-3.7,19.4-11c0-3.1-1-5.7-3.1-7.9c-2.1-2.1-4.7-3.7-7.8-4.7
			l-10.1-3.1c-3.6-1.1-7-2.2-10.1-3.3c-3.1-1.1-5.7-2.9-7.8-5.4C1412.6,429.1,1411.6,426,1411.6,422.4z"/>
		<path class="st1" d="M1476.4,460.9c-1.6-3.7-2.4-8.2-2.4-13.5s0.8-9.8,2.4-13.5c1.6-3.7,3.8-6.5,6.5-8.3c2.8-1.8,5.5-3.1,8.4-3.9
			c2.8-0.8,6-1.1,9.4-1.1c3.4,0,6.6,0.4,9.5,1.1c2.9,0.8,5.7,2.1,8.4,3.9c2.8,1.8,4.9,4.6,6.5,8.3c1.6,3.7,2.4,8.2,2.4,13.5
			s-0.8,9.8-2.4,13.5c-1.6,3.7-3.8,6.5-6.5,8.3c-2.8,1.8-5.6,3.1-8.4,3.9c-2.9,0.8-6,1.1-9.5,1.1c-3.4,0-6.6-0.4-9.4-1.1
			c-2.8-0.8-5.6-2.1-8.4-3.9C1480.1,467.4,1478,464.7,1476.4,460.9z M1486.6,432.2c-2.9,3.2-4.4,8.3-4.4,15.2c0,7,1.5,12,4.4,15.2
			c2.9,3.2,7.6,4.8,14.1,4.8c6.5,0,11.2-1.6,14.1-4.7c3-3.2,4.4-8.2,4.4-15.3s-1.5-12.1-4.4-15.3c-3-3.2-7.7-4.7-14.1-4.7
			C1494.3,427.4,1489.6,429,1486.6,432.2z"/>
		<path class="st1" d="M1542.4,473.5v-71.9h8.3v71.9H1542.4z"/>
		<path class="st1" d="M1568.2,451.6v-30.1h8.3v30.5c0,5.3,1.3,9.2,3.8,11.6c2.5,2.5,6.5,3.7,11.9,3.7c5.3,0,9.2-1.2,11.8-3.7
			c2.6-2.5,3.8-6.3,3.8-11.6v-30.5h8.3v30.1c0,7.2-2.1,12.8-6.2,16.8c-4.2,4-10,5.9-17.7,5.9c-7.6,0-13.5-2-17.7-5.9
			C1570.2,464.4,1568.2,458.8,1568.2,451.6z"/>
		<path class="st1" d="M1627.2,428.3v-6.9h9.9v-14.7h8.3v14.7h14.7v6.9h-14.7v31.7c0,2.6,0.6,4.5,1.8,5.6c1.2,1.1,3.3,1.6,6.4,1.6
			c2.3,0,4.5-0.4,6.5-1.2v7.1c-2.4,0.8-4.8,1.2-7.2,1.2c-0.1,0-0.2,0-0.3,0c-1.5,0-3-0.2-4.5-0.5s-3.1-0.9-4.9-1.8
			c-1.8-0.9-3.3-2.4-4.4-4.5c-1.1-2.1-1.7-4.7-1.7-7.9v-31.3H1627.2z"/>
		<path class="st1" d="M1673,412.3v-8.4h9.1v8.4H1673z M1673.5,473.5h8.3v-52h-8.3V473.5z"/>
		<path class="st1" d="M1698.6,460.9c-1.6-3.7-2.4-8.2-2.4-13.5s0.8-9.8,2.4-13.5c1.6-3.7,3.8-6.5,6.5-8.3c2.8-1.8,5.5-3.1,8.4-3.9
			c2.8-0.8,6-1.1,9.4-1.1c3.4,0,6.6,0.4,9.5,1.1c2.9,0.8,5.7,2.1,8.4,3.9c2.8,1.8,4.9,4.6,6.5,8.3c1.6,3.7,2.4,8.2,2.4,13.5
			s-0.8,9.8-2.4,13.5c-1.6,3.7-3.8,6.5-6.5,8.3c-2.8,1.8-5.6,3.1-8.4,3.9c-2.9,0.8-6,1.1-9.5,1.1c-3.4,0-6.6-0.4-9.4-1.1
			c-2.8-0.8-5.6-2.1-8.4-3.9C1702.4,467.4,1700.2,464.7,1698.6,460.9z M1708.9,432.2c-2.9,3.2-4.4,8.3-4.4,15.2c0,7,1.5,12,4.4,15.2
			c2.9,3.2,7.6,4.8,14.1,4.8c6.5,0,11.2-1.6,14.1-4.7c3-3.2,4.4-8.2,4.4-15.3s-1.5-12.1-4.4-15.3c-3-3.2-7.7-4.7-14.1-4.7
			C1716.5,427.4,1711.8,429,1708.9,432.2z"/>
		<path class="st1" d="M1762.9,473.5v-47.9c7.5-3.4,15.5-5.1,24.1-5.1c7.2,0,12.7,1.7,16.7,5c4,3.3,5.9,8,5.9,14.1v33.9h-8.3v-33.9
			c0-1.5-0.2-2.8-0.5-3.9c-0.3-1.1-1-2.3-1.9-3.6c-1-1.3-2.5-2.3-4.7-3c-2.2-0.7-4.9-1-8.1-1c-4.8,0-9.8,0.7-15,2.1v43.4H1762.9z"/>
		<path class="st1" d="M1823.9,435.6c0-4.2,1.7-7.7,5-10.6s8.4-4.4,15.3-4.4c4.9,0,9.7,1.1,14.6,3.2v7.5c-4.4-2.4-8.9-3.6-13.7-3.6
			c-8.6,0-12.9,2.7-12.9,8c0,1.8,1,3.3,3.1,4.4c2.1,1.1,4.6,2,7.6,2.8c3,0.7,6,1.6,9,2.6c3,1,5.6,2.7,7.7,5.2
			c2.1,2.4,3.2,5.5,3.2,9.3c0,4.5-1.8,8.1-5.5,10.6c-3.7,2.6-8.8,3.8-15.4,3.8c-6.3,0-12.1-1.3-17.2-3.9v-8
			c5.5,3.1,11.1,4.6,16.9,4.6c8.7,0,13-2.4,13-7.2c0-2.6-1-4.6-3.1-6.1c-2.1-1.5-4.6-2.6-7.6-3.3c-3-0.7-6-1.5-9-2.4
			c-3-0.9-5.6-2.3-7.7-4.4C1825,441.6,1823.9,438.9,1823.9,435.6z"/>
	</g>
	<g id="_x31_904labs">
		<path class="st1" d="M305.9,129.3V85l49.6-28.3h46.1v304h-42.5V98.1L305.9,129.3z"/>
		<path class="st1" d="M434.3,158.6c0-28.1,8.8-52.1,26.3-72.2c17.5-20.1,43.2-30.1,76.9-30.1c68.7,0,103,46.7,103,140.2
			c0,20.5-1.9,39.1-5.6,55.9s-8.5,30.7-14.3,41.8c-5.8,11-12.9,20.8-21.1,29.3c-8.2,8.5-16.4,15-24.4,19.6
			c-8,4.6-16.7,8.3-26.1,11.1c-9.4,2.8-17.6,4.7-24.5,5.6c-6.9,0.9-13.8,1.3-20.6,1.3c-15.4,0-30.8-2.2-46-6.5v-37.5
			c12.4,3.5,25.2,5.2,38.4,5.2c0.4,0,0.9,0,1.5,0c26.1,0,47.6-7.3,64.3-21.8c16.8-14.5,28-35.3,33.6-62.4
			c-16.1,10.3-36.8,15.5-62,15.5c-34.9,0-60.3-9.3-76-27.8C442.1,207.3,434.3,184.9,434.3,158.6z M475.9,158.6
			c0,38.4,20.5,57.6,61.6,57.6c25.5,0,46-7.3,61.4-22c-0.3-19-2.1-35.3-5.3-48.8c-3.3-13.5-6.9-23.5-10.9-30.1
			c-4-6.5-9.3-11.5-15.8-14.9c-6.5-3.4-11.6-5.3-15.3-5.8c-3.7-0.4-8.4-0.7-14-0.7c-13.1,0-24.1,2.4-33,7.1
			c-8.9,4.7-15.2,10.9-18.9,18.5c-3.7,7.6-6.2,14.5-7.6,20.6C476.6,146.1,475.9,152.3,475.9,158.6z"/>
		<path class="st1" d="M673.2,208.3c0-24.1,2.5-45.4,7.4-64c4.9-18.6,11.2-33.3,18.7-44.1c7.5-10.8,16.7-19.7,27.4-26.6
			c10.7-6.9,21.3-11.5,31.7-13.8c10.4-2.3,21.5-3.5,33.4-3.5c15.1,0,29,2.1,41.6,6.4c12.6,4.3,25,11.6,37.2,22
			c12.2,10.4,21.8,26.1,28.9,47c7,21,10.6,46.5,10.6,76.6c0,24.4-2.5,45.8-7.4,64.3c-4.9,18.4-11.2,33.1-18.7,44.1
			c-7.6,11-16.7,19.9-27.4,26.8c-10.7,6.9-21.2,11.5-31.5,13.8c-10.2,2.3-21.3,3.5-33.2,3.5c-11.9,0-23.1-1.2-33.4-3.5
			c-10.4-2.3-20.9-6.9-31.7-13.8c-10.7-6.9-19.9-15.8-27.4-26.8c-7.6-11-13.8-25.7-18.7-44.1C675.7,254.1,673.2,232.7,673.2,208.3z
			 M719.5,157.5c-3.1,14.3-4.7,31.3-4.7,50.9s1.6,36.6,4.7,51.1c3.1,14.5,7,25.7,11.8,33.7c4.7,8,10.7,14.4,18,19.2
			c7.3,4.8,14.1,7.8,20.6,9.1c6.5,1.3,13.8,2,22.1,2c8,0,15.2-0.7,21.8-2c6.5-1.3,13.4-4.4,20.6-9.1c7.2-4.8,13.1-11.2,17.9-19.2
			c4.7-8,8.6-19.2,11.8-33.7c3.1-14.4,4.7-31.5,4.7-51.1s-1.6-36.6-4.7-50.9c-3.1-14.3-7-25.4-11.8-33.4c-4.7-8-10.7-14.4-17.9-19.2
			c-7.2-4.8-14-7.8-20.6-9.1c-6.5-1.3-13.8-2-21.8-2c-8.3,0-15.6,0.7-22.1,2c-6.5,1.3-13.3,4.4-20.6,9.1c-7.3,4.8-13.3,11.2-18,19.2
			C726.6,132,722.7,143.2,719.5,157.5z"/>
		<path class="st1" d="M942.9,264.5v-37.4l133.6-170.5h47.4v170.5h43.2v37.4h-43.2v96.2h-42.5v-96.2H942.9z M993,227.1h88.4v-110
			L993,227.1z"/>
		<path class="st1" d="M1199.8,361.7V56.3h40v305.3H1199.8z"/>
		<path class="st1" d="M1272.5,288.5c0-21.5,9.1-38.4,27.3-50.5c18.2-12.1,43.3-18.2,75.3-18.2c13.6,0,26.8,0.9,39.6,2.6
			c-0.9-18.3-5.9-31.5-15-39.4c-9.1-8-24.1-11.9-45-11.9c-18.9,0-39,3.6-60.3,10.9v-34.1c20.6-7.8,42.6-11.7,65.9-11.7
			c30.4,0,53.8,7.9,70.4,23.6c16.5,15.7,24.8,38.3,24.8,67.7v62.9c0,4.7-0.5,9.3-1.4,14c-0.9,4.6-3.1,10.6-6.6,17.8
			c-3.5,7.2-8.2,13.6-14.2,19c-6,5.4-15,10.1-27,14c-12,3.9-25.8,5.9-41.5,5.9c-16.1,0-30.2-2-42.3-6.1
			c-12.1-4.1-21.2-8.8-27.3-14.2c-6.1-5.4-11-11.8-14.6-19.2c-3.6-7.4-5.9-13.5-6.7-18.4C1272.9,297.9,1272.5,293.2,1272.5,288.5z
			 M1312.4,288c0,24.6,17.4,36.9,52.3,36.9c0.1,0,0.4,0,0.6,0c32.9,0,49.4-11.8,49.4-35.4v-35.2c-10.5-1.7-23.1-2.6-37.9-2.8
			c-5.8,0-11.9,0.5-18.3,1.6c-6.4,1.1-13.3,2.7-20.6,5c-7.4,2.3-13.5,6-18.3,11.2C1314.8,274.6,1312.4,280.8,1312.4,288z"/>
		<path class="st1" d="M1488.1,290.1V56.3h39.9v86c15-4.3,30.6-6.5,46.6-6.5c12.5,0,24.1,1.5,34.9,4.6c10.8,3.1,21.3,8.4,31.7,15.9
			c10.3,7.5,18.5,18.9,24.3,34s8.8,33.5,8.8,55.2c0,19.2-2.2,36-6.7,50.4c-4.5,14.4-10,25.6-16.5,33.6c-6.5,8-14.4,14.4-23.5,19.4
			c-9.1,5-17.6,8.2-25.3,9.6c-7.7,1.4-15.8,2.1-24.1,2.1c-15.8,0-29.6-2-41.4-5.9c-11.8-3.9-20.7-8.6-26.7-14
			c-6-5.4-10.7-11.7-14.2-19c-3.5-7.2-5.7-13.2-6.5-17.9C1488.5,299.3,1488.1,294.7,1488.1,290.1z M1528,292.4
			c0,21.6,16.7,32.5,50.2,32.5c7.5,0,14.2-0.9,20-2.8c5.8-1.8,11.7-5.3,17.7-10.4c6-5.1,10.5-13.2,13.7-24.4
			c3.2-11.2,4.8-25.1,4.8-41.8c0-15.7-1.6-28.7-4.8-38.9c-3.2-10.3-7.8-17.8-13.7-22.6c-6-4.8-12.1-8.1-18.5-9.8
			c-6.4-1.7-14-2.5-22.8-2.5c-16.3,0-31.9,3-46.6,9.1V292.4z"/>
		<path class="st1" d="M1707,202.7c0-17.8,6.3-32.9,19-45.4c12.7-12.5,32.1-18.7,58.2-18.7c19.5,0,38.6,4.7,57.5,14.1v34.1
			c-18.6-8.5-36.2-12.8-52.7-12.8c-28.5,0-42.7,9.2-42.7,27.5c0,6,3.8,11,11.4,15c7.6,4,16.7,7.5,27.4,10.5c10.7,3,21.3,6.6,32,10.9
			c10.7,4.3,19.9,11.4,27.5,21.5c7.6,10.1,11.4,22.5,11.4,37.4c0,17.3-6.5,32.3-19.5,44.9c-13,12.6-33.2,18.8-60.5,18.8
			c-23,0-43.7-5-62.1-15.1v-36c18.7,10.5,38.5,15.7,59.6,15.7c0.3,0,0.6,0,0.8,0c13.7,0,24.2-2.5,31.5-7.4c7.2-5,10.8-11.3,10.8-19
			c0-8.8-3.8-15.9-11.3-21.3c-7.5-5.4-16.7-9.6-27.5-12.6c-10.8-3-21.6-6.4-32.3-10.1c-10.7-3.7-19.9-9.9-27.4-18.5
			C1710.8,227.6,1707,216.4,1707,202.7z"/>
	</g>
</g>
</svg>
